<svg width="123" height="52" viewBox="0 0 123 52" fill="none" xmlns="http://www.w3.org/2000/svg">
<g clip-path="url(#clip0_45_226)">
<path d="M26 52C40.3594 52 52 40.3594 52 26C52 11.6406 40.3594 0 26 0C11.6406 0 0 11.6406 0 26C0 40.3594 11.6406 52 26 52Z" fill="#05930C"/>
<path d="M7.90209 7.33276L44.6339 44.1323C39.9105 48.9855 33.3073 52 26 52C11.6406 52 0 40.3594 0 26C0 18.6755 3.02872 12.0584 7.90209 7.33276Z" fill="white" fill-opacity="0.1"/>
<path d="M24.7243 35.3843C22.9556 36.2449 21.0025 36.6578 19.0368 36.5868C16.4087 36.702 13.8588 35.6773 12.0412 33.7756C10.2351 31.7511 9.29317 29.1001 9.4168 26.39C9.28968 23.453 10.3565 20.5896 12.3743 18.4518C14.3468 16.4338 17.0778 15.3396 19.8981 15.4375C21.5455 15.3746 23.1883 15.6511 24.7243 16.25V18.8093C23.2345 17.9813 21.5536 17.5583 19.8493 17.5825C17.7025 17.5113 15.6293 18.3702 14.1618 19.9387C12.6404 21.673 11.8536 23.9314 11.9681 26.2356C11.8555 28.4132 12.5891 30.5501 14.0156 32.1993C15.3995 33.6873 17.3638 34.4974 19.3943 34.4175C21.2666 34.464 23.115 33.9885 24.7324 33.0443L24.7243 35.3843ZM42.8674 21.4987L42.5424 23.01H38.8049L37.9112 27.3H41.9249L41.5431 28.8112H37.6106L36.3512 34.4987H34.5556L35.7824 28.8112H32.2074L31.0049 34.4987H29.2499L30.4524 28.8112H26.6824L26.9668 27.3H30.7531L31.6224 23.0181H27.6656L27.9662 21.5068H31.9231L33.1256 15.7625H34.9374L33.7349 21.5068H37.3343L38.5612 15.7625H40.3162L39.1137 21.5068L42.8674 21.4987ZM37.0418 23.01H33.4343L32.4999 27.3H36.1237L37.0418 23.01Z" fill="white"/>
</g>
<path d="M89.7082 23.072C89.4922 22.088 89.1322 21.212 88.6282 20.444C88.1482 19.652 87.5482 18.992 86.8282 18.464C86.1322 17.936 85.3522 17.54 84.4882 17.276C83.6482 16.988 82.7602 16.844 81.8242 16.844C80.1202 16.844 78.6562 17.168 77.4322 17.816C76.2082 18.464 75.2002 19.328 74.4082 20.408C73.6402 21.464 73.0642 22.664 72.6802 24.008C72.3202 25.352 72.1402 26.732 72.1402 28.148C72.1402 29.54 72.3202 30.92 72.6802 32.288C73.0642 33.632 73.6402 34.844 74.4082 35.924C75.2002 36.98 76.2082 37.832 77.4322 38.48C78.6562 39.128 80.1202 39.452 81.8242 39.452C83.0242 39.452 84.1042 39.236 85.0642 38.804C86.0242 38.372 86.8522 37.784 87.5482 37.04C88.2442 36.296 88.8082 35.432 89.2402 34.448C89.6722 33.44 89.9482 32.36 90.0682 31.208H92.5162C92.3482 32.792 91.9762 34.22 91.4002 35.492C90.8242 36.764 90.0802 37.844 89.1682 38.732C88.2562 39.62 87.1762 40.304 85.9282 40.784C84.7042 41.264 83.3362 41.504 81.8242 41.504C79.8082 41.504 78.0322 41.144 76.4962 40.424C74.9842 39.68 73.7242 38.696 72.7162 37.472C71.7082 36.248 70.9522 34.832 70.4482 33.224C69.9442 31.616 69.6922 29.924 69.6922 28.148C69.6922 26.372 69.9442 24.68 70.4482 23.072C70.9522 21.464 71.7082 20.048 72.7162 18.824C73.7242 17.576 74.9842 16.592 76.4962 15.872C78.0322 15.128 79.8082 14.756 81.8242 14.756C83.0482 14.756 84.2362 14.936 85.3882 15.296C86.5642 15.656 87.6202 16.196 88.5562 16.916C89.5162 17.612 90.3082 18.476 90.9322 19.508C91.5802 20.54 91.9882 21.728 92.1562 23.072H89.7082ZM101.7 25.736L100.908 31.352H105.984L106.776 25.736H101.7ZM111.564 32.972H107.568L106.452 41H104.652L105.768 32.972H100.692L99.5759 41H97.7759L98.8919 32.972H94.9319V31.352H99.1079L99.8999 25.736H95.9399V24.116H100.116L101.232 16.124H103.032L101.916 24.116H106.992L108.108 16.124H109.908L108.792 24.116H112.572V25.736H108.576L107.784 31.352H111.564V32.972Z" fill="black"/>
<defs>
<clipPath id="clip0_45_226">
<rect width="52" height="52" fill="white"/>
</clipPath>
</defs>
</svg>
