<svg width="132" height="52" viewBox="0 0 132 52" fill="none" xmlns="http://www.w3.org/2000/svg">
<path fill-rule="evenodd" clip-rule="evenodd" d="M6.38667 46.8017L2.69531 0H43.2575L39.5621 46.794L22.9518 52L6.38667 46.8017Z" fill="#0071BC"/>
<path fill-rule="evenodd" clip-rule="evenodd" d="M23.0104 48.0182L36.4157 43.8494L39.5566 3.89758H23.0104V48.0182Z" fill="#29ABE2"/>
<path fill-rule="evenodd" clip-rule="evenodd" d="M11.1448 21.0923L11.5895 26.8239L23.0105 21.0923V15.3514L11.1448 21.0923Z" fill="#B3B3B3"/>
<path fill-rule="evenodd" clip-rule="evenodd" d="M35.6595 9.22327L23.0104 15.3514V21.0923L35.2234 14.9549L35.6595 9.22327Z" fill="#E6E6E6"/>
<path fill-rule="evenodd" clip-rule="evenodd" d="M23.0105 36.0889L22.9712 36.0956L17.3072 34.3761L16.9372 29.8043H11.8396L12.551 38.811L22.9701 42.0721L23.0105 42.0614V36.0889Z" fill="#E6E6E6"/>
<path fill-rule="evenodd" clip-rule="evenodd" d="M23.0104 21.0923V26.8239H29.2116L28.648 34.3175L23.0104 36.0938V42.0658L33.395 38.8047L34.7624 21.0923H23.0104Z" fill="white"/>
<path fill-rule="evenodd" clip-rule="evenodd" d="M23.0105 21.0923H11.1448L11.5895 26.8239H23.0105V21.0923Z" fill="#E6E6E6"/>
<path fill-rule="evenodd" clip-rule="evenodd" d="M23.0105 14.9549V9.22327H22.9589H10.2433L10.6933 14.9549H23.0105Z" fill="#E6E6E6"/>
<path fill-rule="evenodd" clip-rule="evenodd" d="M23.0104 9.22327V14.883V14.9549H35.2234L35.6595 9.22327H23.0104Z" fill="white"/>
<path d="M78.5344 19.072C78.3184 18.088 77.9584 17.212 77.4544 16.444C76.9744 15.652 76.3744 14.992 75.6544 14.464C74.9584 13.936 74.1784 13.54 73.3144 13.276C72.4744 12.988 71.5864 12.844 70.6504 12.844C68.9464 12.844 67.4824 13.168 66.2584 13.816C65.0344 14.464 64.0264 15.328 63.2344 16.408C62.4664 17.464 61.8904 18.664 61.5064 20.008C61.1464 21.352 60.9664 22.732 60.9664 24.148C60.9664 25.54 61.1464 26.92 61.5064 28.288C61.8904 29.632 62.4664 30.844 63.2344 31.924C64.0264 32.98 65.0344 33.832 66.2584 34.48C67.4824 35.128 68.9464 35.452 70.6504 35.452C71.8504 35.452 72.9304 35.236 73.8904 34.804C74.8504 34.372 75.6784 33.784 76.3744 33.04C77.0704 32.296 77.6344 31.432 78.0664 30.448C78.4984 29.44 78.7744 28.36 78.8944 27.208H81.3424C81.1744 28.792 80.8024 30.22 80.2264 31.492C79.6504 32.764 78.9064 33.844 77.9944 34.732C77.0824 35.62 76.0024 36.304 74.7544 36.784C73.5304 37.264 72.1624 37.504 70.6504 37.504C68.6344 37.504 66.8584 37.144 65.3224 36.424C63.8104 35.68 62.5504 34.696 61.5424 33.472C60.5344 32.248 59.7784 30.832 59.2744 29.224C58.7704 27.616 58.5184 25.924 58.5184 24.148C58.5184 22.372 58.7704 20.68 59.2744 19.072C59.7784 17.464 60.5344 16.048 61.5424 14.824C62.5504 13.576 63.8104 12.592 65.3224 11.872C66.8584 11.128 68.6344 10.756 70.6504 10.756C71.8744 10.756 73.0624 10.936 74.2144 11.296C75.3904 11.656 76.4464 12.196 77.3824 12.916C78.3424 13.612 79.1344 14.476 79.7584 15.508C80.4064 16.54 80.8144 17.728 80.9824 19.072H78.5344ZM86.242 28.54C86.218 29.86 86.422 30.964 86.854 31.852C87.286 32.74 87.874 33.448 88.618 33.976C89.386 34.504 90.286 34.888 91.318 35.128C92.35 35.344 93.454 35.452 94.63 35.452C95.302 35.452 96.034 35.356 96.826 35.164C97.618 34.972 98.35 34.672 99.022 34.264C99.718 33.832 100.294 33.292 100.75 32.644C101.206 31.972 101.434 31.168 101.434 30.232C101.434 29.512 101.266 28.888 100.93 28.36C100.618 27.832 100.198 27.388 99.67 27.028C99.166 26.668 98.602 26.38 97.978 26.164C97.354 25.924 96.742 25.732 96.142 25.588L90.418 24.184C89.674 23.992 88.942 23.752 88.222 23.464C87.526 23.176 86.914 22.792 86.386 22.312C85.858 21.832 85.426 21.244 85.09 20.548C84.778 19.852 84.622 19 84.622 17.992C84.622 17.368 84.742 16.636 84.982 15.796C85.222 14.956 85.666 14.164 86.314 13.42C86.986 12.676 87.898 12.052 89.05 11.548C90.202 11.02 91.678 10.756 93.478 10.756C94.75 10.756 95.962 10.924 97.114 11.26C98.266 11.596 99.274 12.1 100.138 12.772C101.002 13.444 101.686 14.284 102.19 15.292C102.718 16.276 102.982 17.428 102.982 18.748H100.534C100.486 17.764 100.258 16.912 99.85 16.192C99.466 15.448 98.95 14.836 98.302 14.356C97.678 13.852 96.946 13.48 96.106 13.24C95.29 12.976 94.426 12.844 93.514 12.844C92.674 12.844 91.858 12.94 91.066 13.132C90.298 13.3 89.614 13.588 89.014 13.996C88.438 14.38 87.97 14.896 87.61 15.544C87.25 16.192 87.07 16.996 87.07 17.956C87.07 18.556 87.166 19.084 87.358 19.54C87.574 19.972 87.862 20.344 88.222 20.656C88.582 20.968 88.99 21.22 89.446 21.412C89.926 21.604 90.43 21.76 90.958 21.88L97.222 23.428C98.134 23.668 98.986 23.968 99.778 24.328C100.594 24.664 101.302 25.096 101.902 25.624C102.526 26.128 103.006 26.752 103.342 27.496C103.702 28.24 103.882 29.14 103.882 30.196C103.882 30.484 103.846 30.868 103.774 31.348C103.726 31.828 103.582 32.344 103.342 32.896C103.126 33.424 102.802 33.964 102.37 34.516C101.962 35.068 101.386 35.572 100.642 36.028C99.922 36.46 99.022 36.808 97.942 37.072C96.862 37.36 95.566 37.504 94.054 37.504C92.542 37.504 91.138 37.336 89.842 37C88.546 36.64 87.442 36.1 86.53 35.38C85.618 34.66 84.91 33.736 84.406 32.608C83.926 31.48 83.722 30.124 83.794 28.54H86.242ZM108.918 28.54C108.894 29.86 109.098 30.964 109.53 31.852C109.962 32.74 110.55 33.448 111.294 33.976C112.062 34.504 112.962 34.888 113.994 35.128C115.026 35.344 116.13 35.452 117.306 35.452C117.978 35.452 118.71 35.356 119.502 35.164C120.294 34.972 121.026 34.672 121.698 34.264C122.394 33.832 122.97 33.292 123.426 32.644C123.882 31.972 124.11 31.168 124.11 30.232C124.11 29.512 123.942 28.888 123.606 28.36C123.294 27.832 122.874 27.388 122.346 27.028C121.842 26.668 121.278 26.38 120.654 26.164C120.03 25.924 119.418 25.732 118.818 25.588L113.094 24.184C112.35 23.992 111.618 23.752 110.898 23.464C110.202 23.176 109.59 22.792 109.062 22.312C108.534 21.832 108.102 21.244 107.766 20.548C107.454 19.852 107.298 19 107.298 17.992C107.298 17.368 107.418 16.636 107.658 15.796C107.898 14.956 108.342 14.164 108.99 13.42C109.662 12.676 110.574 12.052 111.726 11.548C112.878 11.02 114.354 10.756 116.154 10.756C117.426 10.756 118.638 10.924 119.79 11.26C120.942 11.596 121.95 12.1 122.814 12.772C123.678 13.444 124.362 14.284 124.866 15.292C125.394 16.276 125.658 17.428 125.658 18.748H123.21C123.162 17.764 122.934 16.912 122.526 16.192C122.142 15.448 121.626 14.836 120.978 14.356C120.354 13.852 119.622 13.48 118.782 13.24C117.966 12.976 117.102 12.844 116.19 12.844C115.35 12.844 114.534 12.94 113.742 13.132C112.974 13.3 112.29 13.588 111.69 13.996C111.114 14.38 110.646 14.896 110.286 15.544C109.926 16.192 109.746 16.996 109.746 17.956C109.746 18.556 109.842 19.084 110.034 19.54C110.25 19.972 110.538 20.344 110.898 20.656C111.258 20.968 111.666 21.22 112.122 21.412C112.602 21.604 113.106 21.76 113.634 21.88L119.898 23.428C120.81 23.668 121.662 23.968 122.454 24.328C123.27 24.664 123.978 25.096 124.578 25.624C125.202 26.128 125.682 26.752 126.018 27.496C126.378 28.24 126.558 29.14 126.558 30.196C126.558 30.484 126.522 30.868 126.45 31.348C126.402 31.828 126.258 32.344 126.018 32.896C125.802 33.424 125.478 33.964 125.046 34.516C124.638 35.068 124.062 35.572 123.318 36.028C122.598 36.46 121.698 36.808 120.618 37.072C119.538 37.36 118.242 37.504 116.73 37.504C115.218 37.504 113.814 37.336 112.518 37C111.222 36.64 110.118 36.1 109.206 35.38C108.294 34.66 107.586 33.736 107.082 32.608C106.602 31.48 106.398 30.124 106.47 28.54H108.918Z" fill="black"/>
</svg>
