<svg width="155" height="52" viewBox="0 0 155 52" fill="none" xmlns="http://www.w3.org/2000/svg">
<path fill-rule="evenodd" clip-rule="evenodd" d="M6.38656 46.8019L2.69531 0H43.2558L39.5606 46.7946L22.9507 52L6.38656 46.8019Z" fill="#E44D26"/>
<path fill-rule="evenodd" clip-rule="evenodd" d="M22.9755 48.0212L36.3971 43.8149L39.5549 3.82678H22.9755V48.0212Z" fill="#F16529"/>
<path d="M16.2564 21.1849H22.9756V26.9249H11.6125L10.243 9.56689H22.9756V15.307H15.7923L16.2564 21.1849Z" fill="#EBEBEB"/>
<path d="M22.9533 36.0992L22.9756 36.0925V42.0646L22.9522 42.0719L12.5508 38.8078L11.8394 29.795H16.9367L17.2982 34.373L22.9533 36.0992Z" fill="#EBEBEB"/>
<path d="M22.958 9.56689H35.6778L35.2232 15.307H22.958V9.56689Z" fill="white"/>
<path d="M22.958 26.9249V21.1849H34.7611L34.6372 22.7263L33.3676 38.8078L22.958 42.0691V36.0973L28.6213 34.3693L29.2107 26.9249H22.958Z" fill="white"/>
<path d="M59.465 14.296H61.913V25.456H77.177V14.296H79.625V40H77.177V27.544H61.913V40H59.465V14.296ZM82.0767 14.296H102.417V16.384H93.4527V40H91.0047V16.384H82.0767V14.296ZM108.345 14.296L116.877 36.832L125.733 14.296H129.333V40H126.885V17.788H126.813L118.029 40H115.725L107.265 17.788H107.193V40H104.745V14.296H108.345ZM134.383 14.296H136.831V37.912H151.231V40H134.383V14.296Z" fill="black"/>
</svg>
