<svg width="227" height="52" viewBox="0 0 227 52" fill="none" xmlns="http://www.w3.org/2000/svg">
<g clip-path="url(#clip0_45_175)">
<path fill-rule="evenodd" clip-rule="evenodd" d="M0 0H46V52H0V0Z" fill="#F7DF1E"/>
<path fill-rule="evenodd" clip-rule="evenodd" d="M12.0951 43.455L15.6153 41.0467C16.2945 42.4079 16.9123 43.5596 18.3941 43.5596C19.8146 43.5596 20.7101 42.9315 20.7101 40.4883V23.873H25.0329V40.5574C25.0329 45.6187 22.4085 47.9225 18.5794 47.9225C15.1213 47.9225 13.114 45.8979 12.095 43.4546" fill="black"/>
<path fill-rule="evenodd" clip-rule="evenodd" d="M27.381 42.9314L30.9008 40.6276C31.8273 42.3381 33.0316 43.5946 35.162 43.5946C36.9532 43.5946 38.0954 42.5823 38.0954 41.1861C38.0954 39.5106 36.9221 38.9171 34.9458 37.9401L33.8654 37.4161C30.7466 35.9155 28.6777 34.0306 28.6777 30.0513C28.6777 26.3862 31.1479 23.5936 35.0078 23.5936C37.7559 23.5936 39.7321 24.6758 41.1523 27.5032L37.7866 29.9465C37.0455 28.4456 36.2429 27.8523 35.0078 27.8523C33.7418 27.8523 32.9389 28.7599 32.9389 29.9465C32.9389 31.4125 33.7418 32.0061 35.5943 32.9137L36.6749 33.4372C40.3495 35.2175 42.4184 37.0324 42.4184 41.1162C42.4184 45.5146 39.3615 47.9229 35.2548 47.9229C31.2407 47.9229 28.6468 45.7588 27.381 42.9314" fill="black"/>
</g>
<path d="M71.626 15.296H74.074V33.836C74.074 35.156 73.942 36.296 73.678 37.256C73.414 38.216 72.982 39.008 72.382 39.632C71.806 40.256 71.038 40.724 70.078 41.036C69.142 41.348 67.978 41.504 66.586 41.504C65.122 41.504 63.922 41.264 62.986 40.784C62.05 40.28 61.318 39.632 60.79 38.84C60.262 38.024 59.902 37.088 59.71 36.032C59.518 34.976 59.422 33.884 59.422 32.756H61.87C61.894 33.308 61.93 33.968 61.978 34.736C62.026 35.504 62.194 36.236 62.482 36.932C62.77 37.628 63.238 38.228 63.886 38.732C64.558 39.212 65.53 39.452 66.802 39.452C67.762 39.452 68.554 39.332 69.178 39.092C69.802 38.828 70.294 38.432 70.654 37.904C71.014 37.352 71.266 36.656 71.41 35.816C71.554 34.976 71.626 33.968 71.626 32.792V15.296ZM78.61 28.112C78.682 27.032 78.91 26.096 79.294 25.304C79.678 24.512 80.194 23.864 80.842 23.36C81.514 22.856 82.294 22.484 83.182 22.244C84.07 22.004 85.054 21.884 86.134 21.884C86.95 21.884 87.766 21.968 88.582 22.136C89.398 22.28 90.13 22.568 90.778 23C91.426 23.432 91.954 24.044 92.362 24.836C92.77 25.604 92.974 26.612 92.974 27.86V37.724C92.974 38.636 93.418 39.092 94.306 39.092C94.57 39.092 94.81 39.044 95.026 38.948V40.856C94.762 40.904 94.522 40.94 94.306 40.964C94.114 40.988 93.862 41 93.55 41C92.974 41 92.506 40.928 92.146 40.784C91.81 40.616 91.546 40.388 91.354 40.1C91.162 39.812 91.03 39.476 90.958 39.092C90.91 38.684 90.886 38.24 90.886 37.76H90.814C90.406 38.36 89.986 38.9 89.554 39.38C89.146 39.836 88.678 40.22 88.15 40.532C87.646 40.844 87.058 41.084 86.386 41.252C85.738 41.42 84.958 41.504 84.046 41.504C83.182 41.504 82.366 41.396 81.598 41.18C80.854 40.988 80.194 40.676 79.618 40.244C79.066 39.788 78.622 39.224 78.286 38.552C77.974 37.856 77.818 37.04 77.818 36.104C77.818 34.808 78.106 33.8 78.682 33.08C79.258 32.336 80.014 31.772 80.95 31.388C81.91 31.004 82.978 30.74 84.154 30.596C85.354 30.428 86.566 30.272 87.79 30.128C88.27 30.08 88.69 30.02 89.05 29.948C89.41 29.876 89.71 29.756 89.95 29.588C90.19 29.396 90.37 29.144 90.49 28.832C90.634 28.52 90.706 28.112 90.706 27.608C90.706 26.84 90.574 26.216 90.31 25.736C90.07 25.232 89.722 24.836 89.266 24.548C88.834 24.26 88.318 24.068 87.718 23.972C87.142 23.852 86.518 23.792 85.846 23.792C84.406 23.792 83.23 24.14 82.318 24.836C81.406 25.508 80.926 26.6 80.878 28.112H78.61ZM90.706 30.848H90.634C90.49 31.112 90.214 31.304 89.806 31.424C89.398 31.544 89.038 31.628 88.726 31.676C87.766 31.844 86.77 32 85.738 32.144C84.73 32.264 83.806 32.456 82.966 32.72C82.126 32.984 81.43 33.368 80.878 33.872C80.35 34.352 80.086 35.048 80.086 35.96C80.086 36.536 80.194 37.052 80.41 37.508C80.65 37.94 80.962 38.324 81.346 38.66C81.73 38.972 82.174 39.212 82.678 39.38C83.182 39.548 83.698 39.632 84.226 39.632C85.09 39.632 85.918 39.5 86.71 39.236C87.502 38.972 88.186 38.588 88.762 38.084C89.362 37.58 89.83 36.968 90.166 36.248C90.526 35.528 90.706 34.712 90.706 33.8V30.848ZM95.406 22.424H97.926L103.758 38.732H103.83L109.59 22.424H111.93L104.982 41H102.57L95.406 22.424ZM113.942 28.112C114.014 27.032 114.242 26.096 114.626 25.304C115.01 24.512 115.526 23.864 116.174 23.36C116.846 22.856 117.626 22.484 118.514 22.244C119.402 22.004 120.386 21.884 121.466 21.884C122.282 21.884 123.098 21.968 123.914 22.136C124.73 22.28 125.462 22.568 126.11 23C126.758 23.432 127.286 24.044 127.694 24.836C128.102 25.604 128.306 26.612 128.306 27.86V37.724C128.306 38.636 128.75 39.092 129.638 39.092C129.902 39.092 130.142 39.044 130.358 38.948V40.856C130.094 40.904 129.854 40.94 129.638 40.964C129.446 40.988 129.194 41 128.882 41C128.306 41 127.838 40.928 127.478 40.784C127.142 40.616 126.878 40.388 126.686 40.1C126.494 39.812 126.362 39.476 126.29 39.092C126.242 38.684 126.218 38.24 126.218 37.76H126.146C125.738 38.36 125.318 38.9 124.886 39.38C124.478 39.836 124.01 40.22 123.482 40.532C122.978 40.844 122.39 41.084 121.718 41.252C121.07 41.42 120.29 41.504 119.378 41.504C118.514 41.504 117.698 41.396 116.93 41.18C116.186 40.988 115.526 40.676 114.95 40.244C114.398 39.788 113.954 39.224 113.618 38.552C113.306 37.856 113.15 37.04 113.15 36.104C113.15 34.808 113.438 33.8 114.014 33.08C114.59 32.336 115.346 31.772 116.282 31.388C117.242 31.004 118.31 30.74 119.486 30.596C120.686 30.428 121.898 30.272 123.122 30.128C123.602 30.08 124.022 30.02 124.382 29.948C124.742 29.876 125.042 29.756 125.282 29.588C125.522 29.396 125.702 29.144 125.822 28.832C125.966 28.52 126.038 28.112 126.038 27.608C126.038 26.84 125.906 26.216 125.642 25.736C125.402 25.232 125.054 24.836 124.598 24.548C124.166 24.26 123.65 24.068 123.05 23.972C122.474 23.852 121.85 23.792 121.178 23.792C119.738 23.792 118.562 24.14 117.65 24.836C116.738 25.508 116.258 26.6 116.21 28.112H113.942ZM126.038 30.848H125.966C125.822 31.112 125.546 31.304 125.138 31.424C124.73 31.544 124.37 31.628 124.058 31.676C123.098 31.844 122.102 32 121.07 32.144C120.062 32.264 119.138 32.456 118.298 32.72C117.458 32.984 116.762 33.368 116.21 33.872C115.682 34.352 115.418 35.048 115.418 35.96C115.418 36.536 115.526 37.052 115.742 37.508C115.982 37.94 116.294 38.324 116.678 38.66C117.062 38.972 117.506 39.212 118.01 39.38C118.514 39.548 119.03 39.632 119.558 39.632C120.422 39.632 121.25 39.5 122.042 39.236C122.834 38.972 123.518 38.588 124.094 38.084C124.694 37.58 125.162 36.968 125.498 36.248C125.858 35.528 126.038 34.712 126.038 33.8V30.848ZM134.41 32.54C134.386 33.86 134.59 34.964 135.022 35.852C135.454 36.74 136.042 37.448 136.786 37.976C137.554 38.504 138.454 38.888 139.486 39.128C140.518 39.344 141.622 39.452 142.798 39.452C143.47 39.452 144.202 39.356 144.994 39.164C145.786 38.972 146.518 38.672 147.19 38.264C147.886 37.832 148.462 37.292 148.918 36.644C149.374 35.972 149.602 35.168 149.602 34.232C149.602 33.512 149.434 32.888 149.098 32.36C148.786 31.832 148.366 31.388 147.838 31.028C147.334 30.668 146.77 30.38 146.146 30.164C145.522 29.924 144.91 29.732 144.31 29.588L138.586 28.184C137.842 27.992 137.11 27.752 136.39 27.464C135.694 27.176 135.082 26.792 134.554 26.312C134.026 25.832 133.594 25.244 133.258 24.548C132.946 23.852 132.79 23 132.79 21.992C132.79 21.368 132.91 20.636 133.15 19.796C133.39 18.956 133.834 18.164 134.482 17.42C135.154 16.676 136.066 16.052 137.218 15.548C138.37 15.02 139.846 14.756 141.646 14.756C142.918 14.756 144.13 14.924 145.282 15.26C146.434 15.596 147.442 16.1 148.306 16.772C149.17 17.444 149.854 18.284 150.358 19.292C150.886 20.276 151.15 21.428 151.15 22.748H148.702C148.654 21.764 148.426 20.912 148.018 20.192C147.634 19.448 147.118 18.836 146.47 18.356C145.846 17.852 145.114 17.48 144.274 17.24C143.458 16.976 142.594 16.844 141.682 16.844C140.842 16.844 140.026 16.94 139.234 17.132C138.466 17.3 137.782 17.588 137.182 17.996C136.606 18.38 136.138 18.896 135.778 19.544C135.418 20.192 135.238 20.996 135.238 21.956C135.238 22.556 135.334 23.084 135.526 23.54C135.742 23.972 136.03 24.344 136.39 24.656C136.75 24.968 137.158 25.22 137.614 25.412C138.094 25.604 138.598 25.76 139.126 25.88L145.39 27.428C146.302 27.668 147.154 27.968 147.946 28.328C148.762 28.664 149.47 29.096 150.07 29.624C150.694 30.128 151.174 30.752 151.51 31.496C151.87 32.24 152.05 33.14 152.05 34.196C152.05 34.484 152.014 34.868 151.942 35.348C151.894 35.828 151.75 36.344 151.51 36.896C151.294 37.424 150.97 37.964 150.538 38.516C150.13 39.068 149.554 39.572 148.81 40.028C148.09 40.46 147.19 40.808 146.11 41.072C145.03 41.36 143.734 41.504 142.222 41.504C140.71 41.504 139.306 41.336 138.01 41C136.714 40.64 135.61 40.1 134.698 39.38C133.786 38.66 133.078 37.736 132.574 36.608C132.094 35.48 131.89 34.124 131.962 32.54H134.41ZM168.606 28.256C168.294 26.864 167.718 25.772 166.878 24.98C166.038 24.188 164.862 23.792 163.35 23.792C162.27 23.792 161.322 24.02 160.506 24.476C159.69 24.932 159.006 25.532 158.454 26.276C157.926 27.02 157.518 27.872 157.23 28.832C156.966 29.768 156.834 30.728 156.834 31.712C156.834 32.696 156.966 33.668 157.23 34.628C157.518 35.564 157.926 36.404 158.454 37.148C159.006 37.892 159.69 38.492 160.506 38.948C161.322 39.404 162.27 39.632 163.35 39.632C164.046 39.632 164.706 39.5 165.33 39.236C165.954 38.972 166.506 38.612 166.986 38.156C167.466 37.676 167.862 37.112 168.174 36.464C168.486 35.816 168.678 35.108 168.75 34.34H171.018C170.706 36.596 169.878 38.36 168.534 39.632C167.19 40.88 165.462 41.504 163.35 41.504C161.934 41.504 160.674 41.252 159.57 40.748C158.49 40.22 157.578 39.512 156.834 38.624C156.09 37.736 155.526 36.704 155.142 35.528C154.758 34.328 154.566 33.056 154.566 31.712C154.566 30.368 154.758 29.108 155.142 27.932C155.526 26.732 156.09 25.688 156.834 24.8C157.578 23.912 158.49 23.204 159.57 22.676C160.674 22.148 161.934 21.884 163.35 21.884C165.342 21.884 167.022 22.412 168.39 23.468C169.782 24.524 170.61 26.12 170.874 28.256H168.606ZM174.17 22.424H176.258V26.78H176.33C176.906 25.268 177.794 24.104 178.994 23.288C180.218 22.472 181.67 22.1 183.35 22.172V24.44C182.318 24.392 181.382 24.536 180.542 24.872C179.702 25.184 178.97 25.64 178.346 26.24C177.746 26.84 177.278 27.56 176.942 28.4C176.606 29.216 176.438 30.116 176.438 31.1V41H174.17V22.424ZM185.561 15.296H187.829V18.932H185.561V15.296ZM185.561 22.424H187.829V41H185.561V22.424ZM192.17 22.424H194.258V25.952H194.33C194.858 24.656 195.71 23.66 196.886 22.964C198.086 22.244 199.442 21.884 200.954 21.884C202.37 21.884 203.594 22.148 204.626 22.676C205.682 23.204 206.558 23.924 207.254 24.836C207.95 25.724 208.466 26.768 208.802 27.968C209.138 29.144 209.306 30.392 209.306 31.712C209.306 33.032 209.138 34.292 208.802 35.492C208.466 36.668 207.95 37.712 207.254 38.624C206.558 39.512 205.682 40.22 204.626 40.748C203.594 41.252 202.37 41.504 200.954 41.504C200.282 41.504 199.61 41.42 198.938 41.252C198.266 41.084 197.642 40.832 197.066 40.496C196.49 40.16 195.974 39.74 195.518 39.236C195.086 38.732 194.75 38.144 194.51 37.472H194.438V47.84H192.17V22.424ZM207.038 31.712C207.038 30.752 206.918 29.804 206.678 28.868C206.462 27.908 206.102 27.056 205.598 26.312C205.118 25.568 204.494 24.968 203.726 24.512C202.958 24.032 202.034 23.792 200.954 23.792C199.706 23.792 198.662 24.008 197.822 24.44C196.982 24.872 196.31 25.448 195.806 26.168C195.302 26.888 194.942 27.728 194.726 28.688C194.534 29.648 194.438 30.656 194.438 31.712C194.438 32.672 194.546 33.632 194.762 34.592C195.002 35.528 195.374 36.368 195.878 37.112C196.406 37.856 197.078 38.468 197.894 38.948C198.734 39.404 199.754 39.632 200.954 39.632C202.034 39.632 202.958 39.404 203.726 38.948C204.494 38.468 205.118 37.856 205.598 37.112C206.102 36.368 206.462 35.528 206.678 34.592C206.918 33.632 207.038 32.672 207.038 31.712ZM216.442 22.424H220.222V24.332H216.442V36.86C216.442 37.604 216.538 38.192 216.73 38.624C216.946 39.032 217.462 39.26 218.278 39.308C218.926 39.308 219.574 39.272 220.222 39.2V41.108C219.886 41.108 219.55 41.12 219.214 41.144C218.878 41.168 218.542 41.18 218.206 41.18C216.694 41.18 215.638 40.892 215.038 40.316C214.438 39.716 214.15 38.624 214.174 37.04V24.332H210.934V22.424H214.174V16.844H216.442V22.424Z" fill="black"/>
<defs>
<clipPath id="clip0_45_175">
<rect width="46" height="52" fill="white"/>
</clipPath>
</defs>
</svg>
