<svg width="215" height="68" viewBox="0 0 215 68" fill="none" xmlns="http://www.w3.org/2000/svg">
<g clip-path="url(#clip0_45_211)">
<path fill-rule="evenodd" clip-rule="evenodd" d="M24.6384 16.8898C24.0042 16.8862 23.3722 16.9487 22.7587 17.0756V17.1453H22.8468C23.2845 17.6713 23.7756 18.1684 24.3153 18.6315C24.6776 19.2121 25.0006 19.7927 25.3629 20.3733L25.4608 20.2959C25.8059 20.0851 26.077 19.808 26.2484 19.4909C26.4198 19.1738 26.4857 18.8274 26.4398 18.4845C26.1657 18.229 26.1265 17.9813 25.8915 17.7104C25.6566 17.4394 24.9811 17.2227 24.6384 16.8898Z" fill="#5D87A1"/>
<path fill-rule="evenodd" clip-rule="evenodd" d="M71.377 48.3807C68.3561 48.2098 65.3241 48.5557 62.4875 49.3948C61.7924 49.6115 60.6959 49.6115 60.6077 50.3005C60.97 50.5869 61.0189 51.0746 61.342 51.4616C61.9697 52.2992 62.7744 53.0454 63.721 53.6679C64.7001 54.2485 65.6791 54.829 66.6581 55.3322C68.4399 56.207 70.4567 56.7101 72.1994 57.5849C73.1784 58.088 74.2162 58.7383 75.2246 59.2879C75.7239 59.5743 76.047 60.062 76.6833 60.2246V60.1162C76.3602 59.7911 76.2721 59.3421 75.9588 58.9551L74.5784 57.91C73.2385 56.5043 71.6338 55.2695 69.8204 54.2485C68.3518 53.4743 65.1406 52.3596 64.5434 51.0281L64.4553 50.9507C65.5291 50.8316 66.5873 50.6373 67.6176 50.3701C69.1742 50.045 70.5546 50.1147 72.1994 49.7896C72.9337 49.6425 73.6581 49.4644 74.4022 49.2864V48.9613C73.57 48.311 72.9728 47.413 72.1113 46.8247C69.7391 45.1874 67.2088 43.6992 64.5434 42.3736C63.1238 41.6459 61.2931 41.1737 59.7756 40.5621C59.2273 40.3454 58.3168 40.237 57.9938 39.8732C57.2427 38.9975 56.6125 38.0606 56.114 37.0786C54.7826 35.0892 53.5 32.8829 52.3546 30.7774C51.6775 29.3657 50.8996 27.9855 50.0245 26.6436C45.2958 20.4894 40.1657 16.7582 32.2846 13.0966C30.4231 12.3883 28.4461 11.8881 26.4104 11.6103C25.265 11.6103 24.1195 11.502 22.9741 11.4633C22.2296 11.0864 21.5256 10.6618 20.8692 10.1937C18.265 8.88547 11.5293 6.05996 9.61038 9.79118C8.36702 12.1135 11.4412 14.4359 12.4887 15.6589C13.3767 16.5034 14.1603 17.4133 14.8286 18.3761C15.1517 18.9954 15.2398 19.6456 15.5628 20.2959C16.2342 21.952 17.0286 23.5753 17.9419 25.1573C18.4394 25.936 19.0054 26.6861 19.6356 27.4022C20.0076 27.797 20.6146 27.9751 20.7908 28.6331C20.1447 29.353 20.0957 30.4445 19.7335 31.3502C18.1279 35.4453 18.7251 40.5157 21.065 43.5425C21.7894 44.4482 23.5321 46.4454 25.872 45.679C27.9377 45.0288 27.4776 42.9696 28.0748 41.1582C28.2118 40.717 28.0748 40.4305 28.3881 40.1441V40.2138C29.0342 41.2279 29.6706 42.2033 30.2678 43.2174C31.9016 45.0851 33.9164 46.7253 36.23 48.071C37.3266 48.729 38.1881 49.8515 39.5685 50.2463V50.1379H39.4804C39.1749 49.8579 38.8186 49.6153 38.4231 49.418C37.5614 48.7417 36.7661 48.0145 36.044 47.2427C34.1013 45.1628 32.3851 42.9565 30.9139 40.6473C30.1797 39.5248 29.5335 38.325 28.9559 37.1715C28.6818 36.738 28.6818 36.08 28.2216 35.8633C27.3745 36.6169 26.6358 37.4425 26.0188 38.325C25.1475 39.8732 25.0398 41.8085 24.7363 43.7979C24.5503 43.8366 24.6482 43.7979 24.5503 43.8676C23.0915 43.5812 22.5922 42.389 22.0342 41.375C20.6053 38.2652 20.4613 34.8771 21.623 31.6986C21.9363 30.9244 23.3167 28.5479 22.7685 27.828C22.4845 27.139 21.5741 26.7442 21.0748 26.2024C20.4329 25.4707 19.879 24.6932 19.4202 23.88C18.3139 21.8209 17.7559 19.545 16.5712 17.5478C15.9106 16.566 15.1441 15.631 14.2803 14.7532C13.3261 13.8774 12.4803 12.9312 11.7544 11.9277C11.5293 11.5329 11.2062 10.8827 11.5782 10.4492C11.6064 10.3209 11.6884 10.2038 11.8109 10.1167C11.9334 10.0297 12.0894 9.97772 12.2537 9.96922C12.8509 9.57443 14.5447 10.0776 15.1908 10.3021C16.7517 10.7756 18.2422 11.3831 19.6356 12.1135C20.2817 12.4696 20.9671 13.1586 21.7894 13.3444H22.7685C24.2272 13.5921 25.8818 13.414 27.2622 13.7392C29.5801 14.3552 31.7931 15.195 33.851 16.2395C39.9176 19.2954 44.8501 23.5695 48.1448 28.6253C48.7028 29.4536 48.928 30.22 49.4371 31.087C50.4161 32.8675 51.5909 34.6789 52.5504 36.4129C53.3926 38.1248 54.4834 39.7536 55.8007 41.2666C56.4861 42.0407 59.2371 42.4278 60.4805 42.8148C61.391 43.1399 62.8106 43.4264 63.6427 43.8212C65.1994 44.5953 66.756 45.4545 68.2246 46.2906C68.949 46.7241 71.24 47.6298 71.3868 48.3575" fill="#00758F"/>
</g>
<path d="M99.1443 12.296L107.676 34.832L116.532 12.296H120.132V38H117.684V15.788H117.612L108.828 38H106.524L98.0643 15.788H97.9923V38H95.5443V12.296H99.1443ZM122.663 19.424H125.075L131.195 35.264L136.919 19.424H139.187L131.123 40.808C130.787 41.6 130.475 42.248 130.187 42.752C129.899 43.28 129.575 43.688 129.215 43.976C128.879 44.288 128.471 44.504 127.991 44.624C127.535 44.768 126.947 44.84 126.227 44.84C125.771 44.816 125.411 44.792 125.147 44.768C124.907 44.768 124.691 44.732 124.499 44.66V42.752C124.763 42.8 125.015 42.836 125.255 42.86C125.519 42.908 125.783 42.932 126.047 42.932C126.551 42.932 126.959 42.86 127.271 42.716C127.607 42.572 127.895 42.368 128.135 42.104C128.375 41.864 128.579 41.564 128.747 41.204C128.915 40.844 129.095 40.448 129.287 40.016L130.079 37.928L122.663 19.424ZM142.999 29.54C142.975 30.86 143.179 31.964 143.611 32.852C144.043 33.74 144.631 34.448 145.375 34.976C146.143 35.504 147.043 35.888 148.075 36.128C149.107 36.344 150.211 36.452 151.387 36.452C152.059 36.452 152.791 36.356 153.583 36.164C154.375 35.972 155.107 35.672 155.779 35.264C156.475 34.832 157.051 34.292 157.507 33.644C157.963 32.972 158.191 32.168 158.191 31.232C158.191 30.512 158.023 29.888 157.687 29.36C157.375 28.832 156.955 28.388 156.427 28.028C155.923 27.668 155.359 27.38 154.735 27.164C154.111 26.924 153.499 26.732 152.899 26.588L147.175 25.184C146.431 24.992 145.699 24.752 144.979 24.464C144.283 24.176 143.671 23.792 143.143 23.312C142.615 22.832 142.183 22.244 141.847 21.548C141.535 20.852 141.379 20 141.379 18.992C141.379 18.368 141.499 17.636 141.739 16.796C141.979 15.956 142.423 15.164 143.071 14.42C143.743 13.676 144.655 13.052 145.807 12.548C146.959 12.02 148.435 11.756 150.235 11.756C151.507 11.756 152.719 11.924 153.871 12.26C155.023 12.596 156.031 13.1 156.895 13.772C157.759 14.444 158.443 15.284 158.947 16.292C159.475 17.276 159.739 18.428 159.739 19.748H157.291C157.243 18.764 157.015 17.912 156.607 17.192C156.223 16.448 155.707 15.836 155.059 15.356C154.435 14.852 153.703 14.48 152.863 14.24C152.047 13.976 151.183 13.844 150.271 13.844C149.431 13.844 148.615 13.94 147.823 14.132C147.055 14.3 146.371 14.588 145.771 14.996C145.195 15.38 144.727 15.896 144.367 16.544C144.007 17.192 143.827 17.996 143.827 18.956C143.827 19.556 143.923 20.084 144.115 20.54C144.331 20.972 144.619 21.344 144.979 21.656C145.339 21.968 145.747 22.22 146.203 22.412C146.683 22.604 147.187 22.76 147.715 22.88L153.979 24.428C154.891 24.668 155.743 24.968 156.535 25.328C157.351 25.664 158.059 26.096 158.659 26.624C159.283 27.128 159.763 27.752 160.099 28.496C160.459 29.24 160.639 30.14 160.639 31.196C160.639 31.484 160.603 31.868 160.531 32.348C160.483 32.828 160.339 33.344 160.099 33.896C159.883 34.424 159.559 34.964 159.127 35.516C158.719 36.068 158.143 36.572 157.399 37.028C156.679 37.46 155.779 37.808 154.699 38.072C153.619 38.36 152.323 38.504 150.811 38.504C149.299 38.504 147.895 38.336 146.599 38C145.303 37.64 144.199 37.1 143.287 36.38C142.375 35.66 141.667 34.736 141.163 33.608C140.683 32.48 140.479 31.124 140.551 29.54H142.999ZM185.943 39.62L181.947 36.632C180.195 37.88 177.975 38.504 175.287 38.504C173.271 38.504 171.495 38.144 169.959 37.424C168.447 36.68 167.187 35.696 166.179 34.472C165.171 33.248 164.415 31.832 163.911 30.224C163.407 28.616 163.155 26.924 163.155 25.148C163.155 23.372 163.407 21.68 163.911 20.072C164.415 18.464 165.171 17.048 166.179 15.824C167.187 14.576 168.447 13.592 169.959 12.872C171.495 12.128 173.271 11.756 175.287 11.756C177.303 11.756 179.067 12.128 180.579 12.872C182.091 13.592 183.351 14.576 184.359 15.824C185.367 17.048 186.123 18.464 186.627 20.072C187.131 21.68 187.383 23.372 187.383 25.148C187.383 27.164 187.059 29.06 186.411 30.836C185.763 32.588 184.791 34.088 183.495 35.336L187.167 38.108L185.943 39.62ZM181.659 33.932C182.811 32.852 183.639 31.532 184.143 29.972C184.671 28.412 184.935 26.804 184.935 25.148C184.935 23.732 184.743 22.352 184.359 21.008C183.999 19.664 183.423 18.464 182.631 17.408C181.863 16.328 180.867 15.464 179.643 14.816C178.443 14.168 176.991 13.844 175.287 13.844C173.583 13.844 172.119 14.168 170.895 14.816C169.671 15.464 168.663 16.328 167.871 17.408C167.103 18.464 166.527 19.664 166.143 21.008C165.783 22.352 165.603 23.732 165.603 25.148C165.603 26.54 165.783 27.92 166.143 29.288C166.527 30.632 167.103 31.844 167.871 32.924C168.663 33.98 169.671 34.832 170.895 35.48C172.119 36.128 173.583 36.452 175.287 36.452C177.111 36.452 178.695 36.032 180.039 35.192L176.655 32.636L177.915 31.088L181.659 33.932ZM191.206 12.296H193.654V35.912H208.054V38H191.206V12.296Z" fill="black"/>
<defs>
<clipPath id="clip0_45_211">
<rect width="67.3667" height="52.2913" fill="white" transform="translate(9.31668 7.93335)"/>
</clipPath>
</defs>
</svg>
